<mxfile>
    <diagram id="3qPJ8z4MUcS7tAUlsb_Y" name="Page-1">
        <mxGraphModel dx="564" dy="229" grid="1" gridSize="10" guides="1" tooltips="1" connect="1" arrows="1" fold="1" page="1" pageScale="1" pageWidth="1169" pageHeight="827" background="#6666FF" math="0" shadow="0">
            <root>
                <mxCell id="0"/>
                <mxCell id="1" parent="0"/>
                <mxCell id="UQv44yCxGu9vo70Qh5Rw-1" value="API (Kanye Rest)" style="whiteSpace=wrap;html=1;fontStyle=5;fontSize=16;labelBackgroundColor=#ffffff;rounded=1;fillColor=#f5f5f5;strokeColor=#666666;fontColor=#333333;" parent="1" vertex="1">
                    <mxGeometry x="40" y="200" width="120" height="410" as="geometry"/>
                </mxCell>
                <mxCell id="UQv44yCxGu9vo70Qh5Rw-6" value="&lt;font style=&quot;font-size: 18px&quot;&gt;SQL&lt;br&gt;(Snowflake)&lt;/font&gt;" style="whiteSpace=wrap;html=1;rounded=1;fillColor=#f5f5f5;strokeColor=#666666;fontColor=#333333;" parent="1" vertex="1">
                    <mxGeometry x="880" y="40" width="240" height="160" as="geometry"/>
                </mxCell>
                <mxCell id="UQv44yCxGu9vo70Qh5Rw-7" value="&lt;font style=&quot;font-size: 18px&quot;&gt;Data Mapping&amp;nbsp;&lt;br&gt;(WordCloud)&lt;br&gt;&lt;/font&gt;" style="whiteSpace=wrap;html=1;rounded=1;fillColor=#f5f5f5;strokeColor=#666666;fontColor=#333333;" parent="1" vertex="1">
                    <mxGeometry x="880" y="620" width="240" height="163" as="geometry"/>
                </mxCell>
                <mxCell id="uEB9PTpcWPlAE0JUYcz4-9" value="" style="shape=image;imageAspect=0;aspect=fixed;verticalLabelPosition=bottom;verticalAlign=top;image=https://cdn11.bigcommerce.com/s-balh3740/images/stencil/1280x1280/products/26297/46281/KanyeWest__85697.1573656214.jpg?c=2;rotation=15;rounded=1;" parent="1" vertex="1">
                    <mxGeometry x="61.08" y="466.5" width="77.84" height="110" as="geometry"/>
                </mxCell>
                <mxCell id="0KMH2d6fpi9MCVuufjVP-2" value="&lt;span&gt;&lt;b&gt;&lt;font style=&quot;font-size: 18px&quot;&gt;Store Raw Data (Local Device Currently)&lt;/font&gt;&lt;/b&gt;&lt;/span&gt;" style="shape=cylinder3;whiteSpace=wrap;html=1;boundedLbl=1;backgroundOutline=1;size=15;rounded=1;fillColor=#f5f5f5;strokeColor=#666666;fontColor=#333333;" parent="1" vertex="1">
                    <mxGeometry x="440" y="261.5" width="150" height="287" as="geometry"/>
                </mxCell>
                <mxCell id="0KMH2d6fpi9MCVuufjVP-14" style="edgeStyle=orthogonalEdgeStyle;orthogonalLoop=1;jettySize=auto;html=1;exitX=1;exitY=0.5;exitDx=0;exitDy=0;entryX=0;entryY=0.5;entryDx=0;entryDy=0;entryPerimeter=0;" parent="1" source="0KMH2d6fpi9MCVuufjVP-4" target="0KMH2d6fpi9MCVuufjVP-2" edge="1">
                    <mxGeometry relative="1" as="geometry"/>
                </mxCell>
                <mxCell id="0KMH2d6fpi9MCVuufjVP-4" value="" style="ellipse;whiteSpace=wrap;html=1;aspect=fixed;rounded=1;fillColor=#f5f5f5;strokeColor=#666666;fontColor=#333333;" parent="1" vertex="1">
                    <mxGeometry x="220" y="316.5" width="177" height="177" as="geometry"/>
                </mxCell>
                <mxCell id="0KMH2d6fpi9MCVuufjVP-1" value="" style="shape=image;html=1;verticalAlign=top;verticalLabelPosition=bottom;labelBackgroundColor=#ffffff;imageAspect=0;aspect=fixed;image=https://cdn4.iconfinder.com/data/icons/logos-and-brands/512/267_Python_logo-128.png;rounded=1;" parent="1" vertex="1">
                    <mxGeometry x="244.5" y="338.5" width="128" height="128" as="geometry"/>
                </mxCell>
                <mxCell id="0KMH2d6fpi9MCVuufjVP-19" style="edgeStyle=orthogonalEdgeStyle;orthogonalLoop=1;jettySize=auto;html=1;exitX=0.5;exitY=1;exitDx=0;exitDy=0;entryX=0.5;entryY=0;entryDx=0;entryDy=0;" parent="1" source="0KMH2d6fpi9MCVuufjVP-5" target="UQv44yCxGu9vo70Qh5Rw-7" edge="1">
                    <mxGeometry relative="1" as="geometry"/>
                </mxCell>
                <mxCell id="0KMH2d6fpi9MCVuufjVP-5" value="" style="ellipse;whiteSpace=wrap;html=1;aspect=fixed;rounded=1;fillColor=#f5f5f5;strokeColor=#666666;fontColor=#333333;" parent="1" vertex="1">
                    <mxGeometry x="911.5" y="322.5" width="177" height="177" as="geometry"/>
                </mxCell>
                <mxCell id="0KMH2d6fpi9MCVuufjVP-6" value="" style="shape=image;html=1;verticalAlign=top;verticalLabelPosition=bottom;labelBackgroundColor=#ffffff;imageAspect=0;aspect=fixed;image=https://cdn4.iconfinder.com/data/icons/logos-and-brands/512/267_Python_logo-128.png;rounded=1;" parent="1" vertex="1">
                    <mxGeometry x="936" y="347" width="128" height="128" as="geometry"/>
                </mxCell>
                <mxCell id="0KMH2d6fpi9MCVuufjVP-7" value="" style="ellipse;whiteSpace=wrap;html=1;aspect=fixed;rounded=1;fillColor=#f5f5f5;strokeColor=#666666;fontColor=#333333;" parent="1" vertex="1">
                    <mxGeometry x="660" y="315.17" width="177" height="177" as="geometry"/>
                </mxCell>
                <mxCell id="0KMH2d6fpi9MCVuufjVP-8" value="" style="shape=image;html=1;verticalAlign=top;verticalLabelPosition=bottom;labelBackgroundColor=#ffffff;imageAspect=0;aspect=fixed;image=https://cdn4.iconfinder.com/data/icons/logos-and-brands/512/267_Python_logo-128.png;rounded=1;" parent="1" vertex="1">
                    <mxGeometry x="684.5" y="337.17" width="128" height="128" as="geometry"/>
                </mxCell>
                <mxCell id="0KMH2d6fpi9MCVuufjVP-13" value="" style="endArrow=classic;startArrow=classic;html=1;entryX=1;entryY=0.5;entryDx=0;entryDy=0;exitX=0;exitY=0.5;exitDx=0;exitDy=0;" parent="1" source="0KMH2d6fpi9MCVuufjVP-4" target="UQv44yCxGu9vo70Qh5Rw-1" edge="1">
                    <mxGeometry width="50" height="50" relative="1" as="geometry">
                        <mxPoint x="210" y="430" as="sourcePoint"/>
                        <mxPoint x="550" y="310" as="targetPoint"/>
                    </mxGeometry>
                </mxCell>
                <mxCell id="0KMH2d6fpi9MCVuufjVP-15" value="" style="endArrow=classic;startArrow=classic;html=1;entryX=0;entryY=0.5;entryDx=0;entryDy=0;exitX=1;exitY=0.5;exitDx=0;exitDy=0;exitPerimeter=0;" parent="1" source="0KMH2d6fpi9MCVuufjVP-2" target="0KMH2d6fpi9MCVuufjVP-7" edge="1">
                    <mxGeometry width="50" height="50" relative="1" as="geometry">
                        <mxPoint x="500" y="360" as="sourcePoint"/>
                        <mxPoint x="550" y="310" as="targetPoint"/>
                    </mxGeometry>
                </mxCell>
                <mxCell id="0KMH2d6fpi9MCVuufjVP-16" value="" style="endArrow=classic;startArrow=classic;html=1;entryX=0;entryY=0.5;entryDx=0;entryDy=0;exitX=0.5;exitY=0;exitDx=0;exitDy=0;" parent="1" source="0KMH2d6fpi9MCVuufjVP-7" target="UQv44yCxGu9vo70Qh5Rw-6" edge="1">
                    <mxGeometry width="50" height="50" relative="1" as="geometry">
                        <mxPoint x="500" y="360" as="sourcePoint"/>
                        <mxPoint x="550" y="310" as="targetPoint"/>
                        <Array as="points">
                            <mxPoint x="749" y="120"/>
                        </Array>
                    </mxGeometry>
                </mxCell>
                <mxCell id="0KMH2d6fpi9MCVuufjVP-17" value="" style="endArrow=classic;startArrow=classic;html=1;entryX=0.5;entryY=0;entryDx=0;entryDy=0;exitX=0.5;exitY=1;exitDx=0;exitDy=0;" parent="1" source="UQv44yCxGu9vo70Qh5Rw-6" target="0KMH2d6fpi9MCVuufjVP-5" edge="1">
                    <mxGeometry width="50" height="50" relative="1" as="geometry">
                        <mxPoint x="500" y="360" as="sourcePoint"/>
                        <mxPoint x="550" y="310" as="targetPoint"/>
                    </mxGeometry>
                </mxCell>
                <mxCell id="0KMH2d6fpi9MCVuufjVP-22" value="" style="shape=image;html=1;verticalAlign=top;verticalLabelPosition=bottom;labelBackgroundColor=#ffffff;imageAspect=0;aspect=fixed;image=https://cdn2.iconfinder.com/data/icons/free-color-outline-christmas/24/christmas-snow-snowflake-weather-winter-128.png;imageBackground=#ffffff;rounded=1;" parent="1" vertex="1">
                    <mxGeometry x="890" y="94" width="62" height="62" as="geometry"/>
                </mxCell>
                <mxCell id="0KMH2d6fpi9MCVuufjVP-24" value="" style="shape=image;html=1;verticalAlign=top;verticalLabelPosition=bottom;labelBackgroundColor=#ffffff;imageAspect=0;aspect=fixed;image=https://cdn2.iconfinder.com/data/icons/free-color-outline-christmas/24/christmas-snow-snowflake-weather-winter-128.png;imageBackground=#ffffff;rounded=1;" parent="1" vertex="1">
                    <mxGeometry x="1050" y="94" width="62" height="62" as="geometry"/>
                </mxCell>
            </root>
        </mxGraphModel>
    </diagram>
</mxfile>
